<svg width="56" height="56" viewBox="0 0 56 56" fill="none" xmlns="http://www.w3.org/2000/svg">
<path d="M28 4.66667H19.8334C17.6674 4.66667 15.5902 5.52708 14.0586 7.05863C12.5271 8.59017 11.6667 10.6674 11.6667 12.8333C11.6667 14.9993 12.5271 17.0765 14.0586 18.608C15.5902 20.1396 17.6674 21 19.8334 21M28 4.66667V21M28 4.66667H36.1667C37.2391 4.66667 38.3011 4.8779 39.2919 5.28832C40.2828 5.69873 41.183 6.30028 41.9414 7.05863C42.6997 7.81697 43.3013 8.71726 43.7117 9.70808C44.1221 10.6989 44.3334 11.7609 44.3334 12.8333C44.3334 13.9058 44.1221 14.9678 43.7117 15.9586C43.3013 16.9494 42.6997 17.8497 41.9414 18.608C41.183 19.3664 40.2828 19.9679 39.2919 20.3783C38.3011 20.7888 37.2391 21 36.1667 21M28 21H19.8334M28 21H36.1667M28 21V37.3333M19.8334 21C17.6674 21 15.5902 21.8604 14.0586 23.392C12.5271 24.9235 11.6667 27.0007 11.6667 29.1667C11.6667 31.3326 12.5271 33.4098 14.0586 34.9414C15.5902 36.4729 17.6674 37.3333 19.8334 37.3333M36.1667 21C35.0942 21 34.0323 21.2112 33.0414 21.6216C32.0506 22.0321 31.1503 22.6336 30.392 23.392C29.6336 24.1503 29.0321 25.0506 28.6217 26.0414C28.2113 27.0322 28 28.0942 28 29.1667C28 30.2391 28.2113 31.3011 28.6217 32.2919C29.0321 33.2827 29.6336 34.183 30.392 34.9414C31.1503 35.6997 32.0506 36.3013 33.0414 36.7117C34.0323 37.1221 35.0942 37.3333 36.1667 37.3333C37.2391 37.3333 38.3011 37.1221 39.2919 36.7117C40.2828 36.3013 41.183 35.6997 41.9414 34.9414C42.6997 34.183 43.3013 33.2827 43.7117 32.2919C44.1221 31.3011 44.3334 30.2391 44.3334 29.1667C44.3334 28.0942 44.1221 27.0322 43.7117 26.0414C43.3013 25.0506 42.6997 24.1503 41.9414 23.392C41.183 22.6336 40.2828 22.0321 39.2919 21.6216C38.3011 21.2112 37.2391 21 36.1667 21ZM19.8334 37.3333C17.6674 37.3333 15.5902 38.1937 14.0586 39.7253C12.5271 41.2568 11.6667 43.3341 11.6667 45.5C11.6667 47.6659 12.5271 49.7432 14.0586 51.2747C15.5902 52.8063 17.6674 53.6667 19.8334 53.6667C21.9993 53.6667 24.0765 52.8063 25.6081 51.2747C27.1396 49.7432 28 47.6659 28 45.5V37.3333M19.8334 37.3333H28" stroke="#E3DCE9" stroke-width="4" stroke-linecap="round" stroke-linejoin="round"/>
</svg>
