<svg width="56" height="56" viewBox="0 0 56 56" fill="none" xmlns="http://www.w3.org/2000/svg">
<path d="M37.3333 18.6667C41.0463 18.6667 44.6073 20.1417 47.2328 22.7672C49.8583 25.3927 51.3333 28.9536 51.3333 32.6667V49H42V32.6667C42 31.429 41.5083 30.242 40.6331 29.3668C39.758 28.4917 38.571 28 37.3333 28C36.0956 28 34.9086 28.4917 34.0335 29.3668C33.1583 30.242 32.6666 31.429 32.6666 32.6667V49H23.3333V32.6667C23.3333 28.9536 24.8083 25.3927 27.4338 22.7672C30.0593 20.1417 33.6203 18.6667 37.3333 18.6667Z" stroke="#E3DCE9" stroke-width="4" stroke-linecap="round" stroke-linejoin="round"/>
<path d="M14 21H4.66663V49H14V21Z" stroke="#E3DCE9" stroke-width="4" stroke-linecap="round" stroke-linejoin="round"/>
<path d="M9.33329 14C11.9106 14 14 11.9107 14 9.33333C14 6.756 11.9106 4.66667 9.33329 4.66667C6.75596 4.66667 4.66663 6.756 4.66663 9.33333C4.66663 11.9107 6.75596 14 9.33329 14Z" stroke="#E3DCE9" stroke-width="4" stroke-linecap="round" stroke-linejoin="round"/>
</svg>
